<?xml version="1.0" encoding="utf-8"?>
<svg xmlns="http://www.w3.org/2000/svg" xmlns:xlink="http://www.w3.org/1999/xlink" width="600" height="400" viewBox="0 0 2400 1600">
<defs>
  <clipPath id="clip150">
    <rect x="0" y="0" width="2400" height="1600"/>
  </clipPath>
</defs>
<path clip-path="url(#clip150)" d="M0 1600 L2400 1600 L2400 0 L0 0  Z" fill="#ffffff" fill-rule="evenodd" fill-opacity="1"/>
<defs>
  <clipPath id="clip151">
    <rect x="480" y="0" width="1681" height="1600"/>
  </clipPath>
</defs>
<path clip-path="url(#clip150)" d="M234.125 1423.18 L2352.76 1423.18 L2352.76 47.2441 L234.125 47.2441  Z" fill="#ffffff" fill-rule="evenodd" fill-opacity="1"/>
<defs>
  <clipPath id="clip152">
    <rect x="234" y="47" width="2120" height="1377"/>
  </clipPath>
</defs>
<polyline clip-path="url(#clip152)" style="stroke:#000000; stroke-linecap:round; stroke-linejoin:round; stroke-width:2; stroke-opacity:0.1; fill:none" points="294.087,1423.18 294.087,47.2441 "/>
<polyline clip-path="url(#clip152)" style="stroke:#000000; stroke-linecap:round; stroke-linejoin:round; stroke-width:2; stroke-opacity:0.1; fill:none" points="516.165,1423.18 516.165,47.2441 "/>
<polyline clip-path="url(#clip152)" style="stroke:#000000; stroke-linecap:round; stroke-linejoin:round; stroke-width:2; stroke-opacity:0.1; fill:none" points="738.244,1423.18 738.244,47.2441 "/>
<polyline clip-path="url(#clip152)" style="stroke:#000000; stroke-linecap:round; stroke-linejoin:round; stroke-width:2; stroke-opacity:0.1; fill:none" points="960.323,1423.18 960.323,47.2441 "/>
<polyline clip-path="url(#clip152)" style="stroke:#000000; stroke-linecap:round; stroke-linejoin:round; stroke-width:2; stroke-opacity:0.1; fill:none" points="1182.4,1423.18 1182.4,47.2441 "/>
<polyline clip-path="url(#clip152)" style="stroke:#000000; stroke-linecap:round; stroke-linejoin:round; stroke-width:2; stroke-opacity:0.1; fill:none" points="1404.48,1423.18 1404.48,47.2441 "/>
<polyline clip-path="url(#clip152)" style="stroke:#000000; stroke-linecap:round; stroke-linejoin:round; stroke-width:2; stroke-opacity:0.1; fill:none" points="1626.56,1423.18 1626.56,47.2441 "/>
<polyline clip-path="url(#clip152)" style="stroke:#000000; stroke-linecap:round; stroke-linejoin:round; stroke-width:2; stroke-opacity:0.1; fill:none" points="1848.64,1423.18 1848.64,47.2441 "/>
<polyline clip-path="url(#clip152)" style="stroke:#000000; stroke-linecap:round; stroke-linejoin:round; stroke-width:2; stroke-opacity:0.1; fill:none" points="2070.72,1423.18 2070.72,47.2441 "/>
<polyline clip-path="url(#clip152)" style="stroke:#000000; stroke-linecap:round; stroke-linejoin:round; stroke-width:2; stroke-opacity:0.1; fill:none" points="2292.79,1423.18 2292.79,47.2441 "/>
<polyline clip-path="url(#clip150)" style="stroke:#000000; stroke-linecap:round; stroke-linejoin:round; stroke-width:4; stroke-opacity:1; fill:none" points="234.125,1423.18 2352.76,1423.18 "/>
<polyline clip-path="url(#clip150)" style="stroke:#000000; stroke-linecap:round; stroke-linejoin:round; stroke-width:4; stroke-opacity:1; fill:none" points="294.087,1423.18 294.087,1404.28 "/>
<polyline clip-path="url(#clip150)" style="stroke:#000000; stroke-linecap:round; stroke-linejoin:round; stroke-width:4; stroke-opacity:1; fill:none" points="516.165,1423.18 516.165,1404.28 "/>
<polyline clip-path="url(#clip150)" style="stroke:#000000; stroke-linecap:round; stroke-linejoin:round; stroke-width:4; stroke-opacity:1; fill:none" points="738.244,1423.18 738.244,1404.28 "/>
<polyline clip-path="url(#clip150)" style="stroke:#000000; stroke-linecap:round; stroke-linejoin:round; stroke-width:4; stroke-opacity:1; fill:none" points="960.323,1423.18 960.323,1404.28 "/>
<polyline clip-path="url(#clip150)" style="stroke:#000000; stroke-linecap:round; stroke-linejoin:round; stroke-width:4; stroke-opacity:1; fill:none" points="1182.4,1423.18 1182.4,1404.28 "/>
<polyline clip-path="url(#clip150)" style="stroke:#000000; stroke-linecap:round; stroke-linejoin:round; stroke-width:4; stroke-opacity:1; fill:none" points="1404.48,1423.18 1404.48,1404.28 "/>
<polyline clip-path="url(#clip150)" style="stroke:#000000; stroke-linecap:round; stroke-linejoin:round; stroke-width:4; stroke-opacity:1; fill:none" points="1626.56,1423.18 1626.56,1404.28 "/>
<polyline clip-path="url(#clip150)" style="stroke:#000000; stroke-linecap:round; stroke-linejoin:round; stroke-width:4; stroke-opacity:1; fill:none" points="1848.64,1423.18 1848.64,1404.28 "/>
<polyline clip-path="url(#clip150)" style="stroke:#000000; stroke-linecap:round; stroke-linejoin:round; stroke-width:4; stroke-opacity:1; fill:none" points="2070.72,1423.18 2070.72,1404.28 "/>
<polyline clip-path="url(#clip150)" style="stroke:#000000; stroke-linecap:round; stroke-linejoin:round; stroke-width:4; stroke-opacity:1; fill:none" points="2292.79,1423.18 2292.79,1404.28 "/>
<path clip-path="url(#clip150)" d="M253.554 1463.64 Q252.837 1463.22 251.98 1463.03 Q251.147 1462.83 250.129 1462.83 Q246.517 1462.83 244.573 1465.19 Q242.652 1467.52 242.652 1471.92 L242.652 1485.58 L238.369 1485.58 L238.369 1459.65 L242.652 1459.65 L242.652 1463.68 Q243.994 1461.32 246.147 1460.19 Q248.3 1459.03 251.379 1459.03 Q251.818 1459.03 252.351 1459.1 Q252.883 1459.14 253.531 1459.26 L253.554 1463.64 Z" fill="#000000" fill-rule="nonzero" fill-opacity="1" /><path clip-path="url(#clip150)" d="M279.156 1471.55 L279.156 1473.64 L259.573 1473.64 Q259.851 1478.03 262.212 1480.35 Q264.596 1482.64 268.832 1482.64 Q271.286 1482.64 273.578 1482.04 Q275.892 1481.44 278.161 1480.23 L278.161 1484.26 Q275.869 1485.23 273.462 1485.74 Q271.054 1486.25 268.578 1486.25 Q262.374 1486.25 258.74 1482.64 Q255.129 1479.03 255.129 1472.87 Q255.129 1466.51 258.554 1462.78 Q262.004 1459.03 267.837 1459.03 Q273.068 1459.03 276.101 1462.41 Q279.156 1465.77 279.156 1471.55 M274.897 1470.3 Q274.851 1466.81 272.929 1464.72 Q271.031 1462.64 267.883 1462.64 Q264.318 1462.64 262.166 1464.65 Q260.036 1466.67 259.712 1470.33 L274.897 1470.3 Z" fill="#000000" fill-rule="nonzero" fill-opacity="1" /><path clip-path="url(#clip150)" d="M308.323 1471.55 L308.323 1473.64 L288.739 1473.64 Q289.017 1478.03 291.378 1480.35 Q293.763 1482.64 297.999 1482.64 Q300.452 1482.64 302.744 1482.04 Q305.059 1481.44 307.327 1480.23 L307.327 1484.26 Q305.036 1485.23 302.628 1485.74 Q300.221 1486.25 297.744 1486.25 Q291.54 1486.25 287.906 1482.64 Q284.295 1479.03 284.295 1472.87 Q284.295 1466.51 287.721 1462.78 Q291.17 1459.03 297.003 1459.03 Q302.235 1459.03 305.267 1462.41 Q308.323 1465.77 308.323 1471.55 M304.063 1470.3 Q304.017 1466.81 302.096 1464.72 Q300.198 1462.64 297.05 1462.64 Q293.485 1462.64 291.332 1464.65 Q289.202 1466.67 288.878 1470.33 L304.063 1470.3 Z" fill="#000000" fill-rule="nonzero" fill-opacity="1" /><path clip-path="url(#clip150)" d="M315.313 1449.56 L319.573 1449.56 L319.573 1485.58 L315.313 1485.58 L315.313 1449.56 Z" fill="#000000" fill-rule="nonzero" fill-opacity="1" /><path clip-path="url(#clip150)" d="M329.897 1481.64 L337.536 1481.64 L337.536 1455.28 L329.225 1456.95 L329.225 1452.69 L337.489 1451.02 L342.165 1451.02 L342.165 1481.64 L349.804 1481.64 L349.804 1485.58 L329.897 1485.58 L329.897 1481.64 Z" fill="#000000" fill-rule="nonzero" fill-opacity="1" /><path clip-path="url(#clip150)" d="M475.818 1463.64 Q475.101 1463.22 474.244 1463.03 Q473.411 1462.83 472.392 1462.83 Q468.781 1462.83 466.837 1465.19 Q464.916 1467.52 464.916 1471.92 L464.916 1485.58 L460.633 1485.58 L460.633 1459.65 L464.916 1459.65 L464.916 1463.68 Q466.258 1461.32 468.411 1460.19 Q470.564 1459.03 473.642 1459.03 Q474.082 1459.03 474.615 1459.1 Q475.147 1459.14 475.795 1459.26 L475.818 1463.64 Z" fill="#000000" fill-rule="nonzero" fill-opacity="1" /><path clip-path="url(#clip150)" d="M501.42 1471.55 L501.42 1473.64 L481.837 1473.64 Q482.115 1478.03 484.476 1480.35 Q486.86 1482.64 491.096 1482.64 Q493.55 1482.64 495.841 1482.04 Q498.156 1481.44 500.425 1480.23 L500.425 1484.26 Q498.133 1485.23 495.726 1485.74 Q493.318 1486.25 490.841 1486.25 Q484.638 1486.25 481.004 1482.64 Q477.392 1479.03 477.392 1472.87 Q477.392 1466.51 480.818 1462.78 Q484.267 1459.03 490.101 1459.03 Q495.332 1459.03 498.365 1462.41 Q501.42 1465.77 501.42 1471.55 M497.161 1470.3 Q497.115 1466.81 495.193 1464.72 Q493.295 1462.64 490.147 1462.64 Q486.582 1462.64 484.429 1464.65 Q482.3 1466.67 481.976 1470.33 L497.161 1470.3 Z" fill="#000000" fill-rule="nonzero" fill-opacity="1" /><path clip-path="url(#clip150)" d="M530.587 1471.55 L530.587 1473.64 L511.003 1473.64 Q511.281 1478.03 513.642 1480.35 Q516.026 1482.64 520.263 1482.64 Q522.716 1482.64 525.008 1482.04 Q527.323 1481.44 529.591 1480.23 L529.591 1484.26 Q527.3 1485.23 524.892 1485.74 Q522.485 1486.25 520.008 1486.25 Q513.804 1486.25 510.17 1482.64 Q506.559 1479.03 506.559 1472.87 Q506.559 1466.51 509.985 1462.78 Q513.434 1459.03 519.267 1459.03 Q524.499 1459.03 527.531 1462.41 Q530.587 1465.77 530.587 1471.55 M526.327 1470.3 Q526.281 1466.81 524.36 1464.72 Q522.462 1462.64 519.313 1462.64 Q515.749 1462.64 513.596 1464.65 Q511.466 1466.67 511.142 1470.33 L526.327 1470.3 Z" fill="#000000" fill-rule="nonzero" fill-opacity="1" /><path clip-path="url(#clip150)" d="M537.577 1449.56 L541.837 1449.56 L541.837 1485.58 L537.577 1485.58 L537.577 1449.56 Z" fill="#000000" fill-rule="nonzero" fill-opacity="1" /><path clip-path="url(#clip150)" d="M555.378 1481.64 L571.697 1481.64 L571.697 1485.58 L549.753 1485.58 L549.753 1481.64 Q552.415 1478.89 556.998 1474.26 Q561.605 1469.61 562.785 1468.27 Q565.031 1465.74 565.91 1464.01 Q566.813 1462.25 566.813 1460.56 Q566.813 1457.8 564.869 1456.07 Q562.948 1454.33 559.846 1454.33 Q557.647 1454.33 555.193 1455.09 Q552.762 1455.86 549.985 1457.41 L549.985 1452.69 Q552.809 1451.55 555.262 1450.97 Q557.716 1450.39 559.753 1450.39 Q565.123 1450.39 568.318 1453.08 Q571.512 1455.77 571.512 1460.26 Q571.512 1462.39 570.702 1464.31 Q569.915 1466.2 567.809 1468.8 Q567.23 1469.47 564.128 1472.69 Q561.026 1475.88 555.378 1481.64 Z" fill="#000000" fill-rule="nonzero" fill-opacity="1" /><path clip-path="url(#clip150)" d="M697.422 1463.64 Q696.705 1463.22 695.848 1463.03 Q695.015 1462.83 693.997 1462.83 Q690.385 1462.83 688.441 1465.19 Q686.52 1467.52 686.52 1471.92 L686.52 1485.58 L682.237 1485.58 L682.237 1459.65 L686.52 1459.65 L686.52 1463.68 Q687.862 1461.32 690.015 1460.19 Q692.168 1459.03 695.247 1459.03 Q695.686 1459.03 696.219 1459.1 Q696.751 1459.14 697.399 1459.26 L697.422 1463.64 Z" fill="#000000" fill-rule="nonzero" fill-opacity="1" /><path clip-path="url(#clip150)" d="M723.024 1471.55 L723.024 1473.64 L703.441 1473.64 Q703.719 1478.03 706.08 1480.35 Q708.464 1482.64 712.7 1482.64 Q715.154 1482.64 717.446 1482.04 Q719.76 1481.44 722.029 1480.23 L722.029 1484.26 Q719.737 1485.23 717.33 1485.74 Q714.922 1486.25 712.446 1486.25 Q706.242 1486.25 702.608 1482.64 Q698.997 1479.03 698.997 1472.87 Q698.997 1466.51 702.422 1462.78 Q705.872 1459.03 711.705 1459.03 Q716.936 1459.03 719.969 1462.41 Q723.024 1465.77 723.024 1471.55 M718.765 1470.3 Q718.719 1466.81 716.797 1464.72 Q714.899 1462.64 711.751 1462.64 Q708.186 1462.64 706.034 1464.65 Q703.904 1466.67 703.58 1470.33 L718.765 1470.3 Z" fill="#000000" fill-rule="nonzero" fill-opacity="1" /><path clip-path="url(#clip150)" d="M752.191 1471.55 L752.191 1473.64 L732.607 1473.64 Q732.885 1478.03 735.246 1480.35 Q737.631 1482.64 741.867 1482.64 Q744.32 1482.64 746.612 1482.04 Q748.927 1481.44 751.195 1480.23 L751.195 1484.26 Q748.904 1485.23 746.496 1485.74 Q744.089 1486.25 741.612 1486.25 Q735.408 1486.25 731.774 1482.64 Q728.163 1479.03 728.163 1472.87 Q728.163 1466.51 731.589 1462.78 Q735.038 1459.03 740.871 1459.03 Q746.103 1459.03 749.135 1462.41 Q752.191 1465.77 752.191 1471.55 M747.931 1470.3 Q747.885 1466.81 745.964 1464.72 Q744.066 1462.64 740.918 1462.64 Q737.353 1462.64 735.2 1464.65 Q733.07 1466.67 732.746 1470.33 L747.931 1470.3 Z" fill="#000000" fill-rule="nonzero" fill-opacity="1" /><path clip-path="url(#clip150)" d="M759.181 1449.56 L763.441 1449.56 L763.441 1485.58 L759.181 1485.58 L759.181 1449.56 Z" fill="#000000" fill-rule="nonzero" fill-opacity="1" /><path clip-path="url(#clip150)" d="M787.121 1466.95 Q790.478 1467.66 792.353 1469.93 Q794.251 1472.2 794.251 1475.53 Q794.251 1480.65 790.732 1483.45 Q787.214 1486.25 780.732 1486.25 Q778.556 1486.25 776.241 1485.81 Q773.95 1485.39 771.496 1484.54 L771.496 1480.02 Q773.441 1481.16 775.755 1481.74 Q778.07 1482.32 780.593 1482.32 Q784.991 1482.32 787.283 1480.58 Q789.598 1478.84 789.598 1475.53 Q789.598 1472.48 787.445 1470.77 Q785.316 1469.03 781.496 1469.03 L777.468 1469.03 L777.468 1465.19 L781.681 1465.19 Q785.13 1465.19 786.959 1463.82 Q788.788 1462.43 788.788 1459.84 Q788.788 1457.18 786.89 1455.77 Q785.015 1454.33 781.496 1454.33 Q779.575 1454.33 777.376 1454.75 Q775.177 1455.16 772.538 1456.04 L772.538 1451.88 Q775.2 1451.14 777.515 1450.77 Q779.853 1450.39 781.913 1450.39 Q787.237 1450.39 790.339 1452.83 Q793.44 1455.23 793.44 1459.35 Q793.44 1462.22 791.797 1464.21 Q790.153 1466.18 787.121 1466.95 Z" fill="#000000" fill-rule="nonzero" fill-opacity="1" /><path clip-path="url(#clip150)" d="M918.934 1463.64 Q918.216 1463.22 917.36 1463.03 Q916.527 1462.83 915.508 1462.83 Q911.897 1462.83 909.953 1465.19 Q908.031 1467.52 908.031 1471.92 L908.031 1485.58 L903.749 1485.58 L903.749 1459.65 L908.031 1459.65 L908.031 1463.68 Q909.374 1461.32 911.527 1460.19 Q913.679 1459.03 916.758 1459.03 Q917.198 1459.03 917.73 1459.1 Q918.263 1459.14 918.911 1459.26 L918.934 1463.64 Z" fill="#000000" fill-rule="nonzero" fill-opacity="1" /><path clip-path="url(#clip150)" d="M944.536 1471.55 L944.536 1473.64 L924.952 1473.64 Q925.23 1478.03 927.591 1480.35 Q929.976 1482.64 934.212 1482.64 Q936.665 1482.64 938.957 1482.04 Q941.272 1481.44 943.54 1480.23 L943.54 1484.26 Q941.249 1485.23 938.841 1485.74 Q936.434 1486.25 933.957 1486.25 Q927.753 1486.25 924.119 1482.64 Q920.508 1479.03 920.508 1472.87 Q920.508 1466.51 923.934 1462.78 Q927.383 1459.03 933.216 1459.03 Q938.448 1459.03 941.48 1462.41 Q944.536 1465.77 944.536 1471.55 M940.276 1470.3 Q940.23 1466.81 938.309 1464.72 Q936.411 1462.64 933.263 1462.64 Q929.698 1462.64 927.545 1464.65 Q925.415 1466.67 925.091 1470.33 L940.276 1470.3 Z" fill="#000000" fill-rule="nonzero" fill-opacity="1" /><path clip-path="url(#clip150)" d="M973.702 1471.55 L973.702 1473.64 L954.119 1473.64 Q954.397 1478.03 956.758 1480.35 Q959.142 1482.64 963.378 1482.64 Q965.832 1482.64 968.124 1482.04 Q970.438 1481.44 972.707 1480.23 L972.707 1484.26 Q970.415 1485.23 968.008 1485.74 Q965.6 1486.25 963.124 1486.25 Q956.92 1486.25 953.286 1482.64 Q949.675 1479.03 949.675 1472.87 Q949.675 1466.51 953.1 1462.78 Q956.55 1459.03 962.383 1459.03 Q967.614 1459.03 970.647 1462.41 Q973.702 1465.77 973.702 1471.55 M969.443 1470.3 Q969.397 1466.81 967.475 1464.72 Q965.577 1462.64 962.429 1462.64 Q958.864 1462.64 956.712 1464.65 Q954.582 1466.67 954.258 1470.33 L969.443 1470.3 Z" fill="#000000" fill-rule="nonzero" fill-opacity="1" /><path clip-path="url(#clip150)" d="M980.693 1449.56 L984.952 1449.56 L984.952 1485.58 L980.693 1485.58 L980.693 1449.56 Z" fill="#000000" fill-rule="nonzero" fill-opacity="1" /><path clip-path="url(#clip150)" d="M1007.31 1455.09 L995.508 1473.54 L1007.31 1473.54 L1007.31 1455.09 M1006.09 1451.02 L1011.97 1451.02 L1011.97 1473.54 L1016.9 1473.54 L1016.9 1477.43 L1011.97 1477.43 L1011.97 1485.58 L1007.31 1485.58 L1007.31 1477.43 L991.711 1477.43 L991.711 1472.92 L1006.09 1451.02 Z" fill="#000000" fill-rule="nonzero" fill-opacity="1" /><path clip-path="url(#clip150)" d="M1141.75 1463.64 Q1141.04 1463.22 1140.18 1463.03 Q1139.35 1462.83 1138.33 1462.83 Q1134.72 1462.83 1132.77 1465.19 Q1130.85 1467.52 1130.85 1471.92 L1130.85 1485.58 L1126.57 1485.58 L1126.57 1459.65 L1130.85 1459.65 L1130.85 1463.68 Q1132.19 1461.32 1134.35 1460.19 Q1136.5 1459.03 1139.58 1459.03 Q1140.02 1459.03 1140.55 1459.1 Q1141.08 1459.14 1141.73 1459.26 L1141.75 1463.64 Z" fill="#000000" fill-rule="nonzero" fill-opacity="1" /><path clip-path="url(#clip150)" d="M1167.36 1471.55 L1167.36 1473.64 L1147.77 1473.64 Q1148.05 1478.03 1150.41 1480.35 Q1152.8 1482.64 1157.03 1482.64 Q1159.48 1482.64 1161.78 1482.04 Q1164.09 1481.44 1166.36 1480.23 L1166.36 1484.26 Q1164.07 1485.23 1161.66 1485.74 Q1159.25 1486.25 1156.78 1486.25 Q1150.57 1486.25 1146.94 1482.64 Q1143.33 1479.03 1143.33 1472.87 Q1143.33 1466.51 1146.75 1462.78 Q1150.2 1459.03 1156.04 1459.03 Q1161.27 1459.03 1164.3 1462.41 Q1167.36 1465.77 1167.36 1471.55 M1163.1 1470.3 Q1163.05 1466.81 1161.13 1464.72 Q1159.23 1462.64 1156.08 1462.64 Q1152.52 1462.64 1150.36 1464.65 Q1148.23 1466.67 1147.91 1470.33 L1163.1 1470.3 Z" fill="#000000" fill-rule="nonzero" fill-opacity="1" /><path clip-path="url(#clip150)" d="M1196.52 1471.55 L1196.52 1473.64 L1176.94 1473.64 Q1177.22 1478.03 1179.58 1480.35 Q1181.96 1482.64 1186.2 1482.64 Q1188.65 1482.64 1190.94 1482.04 Q1193.26 1481.44 1195.53 1480.23 L1195.53 1484.26 Q1193.23 1485.23 1190.83 1485.74 Q1188.42 1486.25 1185.94 1486.25 Q1179.74 1486.25 1176.11 1482.64 Q1172.49 1479.03 1172.49 1472.87 Q1172.49 1466.51 1175.92 1462.78 Q1179.37 1459.03 1185.2 1459.03 Q1190.43 1459.03 1193.47 1462.41 Q1196.52 1465.77 1196.52 1471.55 M1192.26 1470.3 Q1192.22 1466.81 1190.29 1464.72 Q1188.4 1462.64 1185.25 1462.64 Q1181.68 1462.64 1179.53 1464.65 Q1177.4 1466.67 1177.08 1470.33 L1192.26 1470.3 Z" fill="#000000" fill-rule="nonzero" fill-opacity="1" /><path clip-path="url(#clip150)" d="M1203.51 1449.56 L1207.77 1449.56 L1207.77 1485.58 L1203.51 1485.58 L1203.51 1449.56 Z" fill="#000000" fill-rule="nonzero" fill-opacity="1" /><path clip-path="url(#clip150)" d="M1217.33 1451.02 L1235.69 1451.02 L1235.69 1454.96 L1221.61 1454.96 L1221.61 1463.43 Q1222.63 1463.08 1223.65 1462.92 Q1224.67 1462.73 1225.69 1462.73 Q1231.48 1462.73 1234.85 1465.9 Q1238.23 1469.08 1238.23 1474.49 Q1238.23 1480.07 1234.76 1483.17 Q1231.29 1486.25 1224.97 1486.25 Q1222.79 1486.25 1220.53 1485.88 Q1218.28 1485.51 1215.87 1484.77 L1215.87 1480.07 Q1217.96 1481.2 1220.18 1481.76 Q1222.4 1482.32 1224.88 1482.32 Q1228.88 1482.32 1231.22 1480.21 Q1233.56 1478.1 1233.56 1474.49 Q1233.56 1470.88 1231.22 1468.77 Q1228.88 1466.67 1224.88 1466.67 Q1223 1466.67 1221.13 1467.08 Q1219.28 1467.5 1217.33 1468.38 L1217.33 1451.02 Z" fill="#000000" fill-rule="nonzero" fill-opacity="1" /><path clip-path="url(#clip150)" d="M1363.25 1463.64 Q1362.54 1463.22 1361.68 1463.03 Q1360.85 1462.83 1359.83 1462.83 Q1356.22 1462.83 1354.27 1465.19 Q1352.35 1467.52 1352.35 1471.92 L1352.35 1485.58 L1348.07 1485.58 L1348.07 1459.65 L1352.35 1459.65 L1352.35 1463.68 Q1353.69 1461.32 1355.85 1460.19 Q1358 1459.03 1361.08 1459.03 Q1361.52 1459.03 1362.05 1459.1 Q1362.58 1459.14 1363.23 1459.26 L1363.25 1463.64 Z" fill="#000000" fill-rule="nonzero" fill-opacity="1" /><path clip-path="url(#clip150)" d="M1388.86 1471.55 L1388.86 1473.64 L1369.27 1473.64 Q1369.55 1478.03 1371.91 1480.35 Q1374.29 1482.64 1378.53 1482.64 Q1380.98 1482.64 1383.28 1482.04 Q1385.59 1481.44 1387.86 1480.23 L1387.86 1484.26 Q1385.57 1485.23 1383.16 1485.74 Q1380.75 1486.25 1378.28 1486.25 Q1372.07 1486.25 1368.44 1482.64 Q1364.83 1479.03 1364.83 1472.87 Q1364.83 1466.51 1368.25 1462.78 Q1371.7 1459.03 1377.54 1459.03 Q1382.77 1459.03 1385.8 1462.41 Q1388.86 1465.77 1388.86 1471.55 M1384.6 1470.3 Q1384.55 1466.81 1382.63 1464.72 Q1380.73 1462.64 1377.58 1462.64 Q1374.02 1462.64 1371.86 1464.65 Q1369.73 1466.67 1369.41 1470.33 L1384.6 1470.3 Z" fill="#000000" fill-rule="nonzero" fill-opacity="1" /><path clip-path="url(#clip150)" d="M1418.02 1471.55 L1418.02 1473.64 L1398.44 1473.64 Q1398.72 1478.03 1401.08 1480.35 Q1403.46 1482.64 1407.7 1482.64 Q1410.15 1482.64 1412.44 1482.04 Q1414.76 1481.44 1417.03 1480.23 L1417.03 1484.26 Q1414.73 1485.23 1412.33 1485.74 Q1409.92 1486.25 1407.44 1486.25 Q1401.24 1486.25 1397.61 1482.64 Q1393.99 1479.03 1393.99 1472.87 Q1393.99 1466.51 1397.42 1462.78 Q1400.87 1459.03 1406.7 1459.03 Q1411.93 1459.03 1414.97 1462.41 Q1418.02 1465.77 1418.02 1471.55 M1413.76 1470.3 Q1413.72 1466.81 1411.79 1464.72 Q1409.9 1462.64 1406.75 1462.64 Q1403.18 1462.64 1401.03 1464.65 Q1398.9 1466.67 1398.58 1470.33 L1413.76 1470.3 Z" fill="#000000" fill-rule="nonzero" fill-opacity="1" /><path clip-path="url(#clip150)" d="M1425.01 1449.56 L1429.27 1449.56 L1429.27 1485.58 L1425.01 1485.58 L1425.01 1449.56 Z" fill="#000000" fill-rule="nonzero" fill-opacity="1" /><path clip-path="url(#clip150)" d="M1449.36 1466.44 Q1446.22 1466.44 1444.36 1468.59 Q1442.54 1470.74 1442.54 1474.49 Q1442.54 1478.22 1444.36 1480.39 Q1446.22 1482.55 1449.36 1482.55 Q1452.51 1482.55 1454.34 1480.39 Q1456.19 1478.22 1456.19 1474.49 Q1456.19 1470.74 1454.34 1468.59 Q1452.51 1466.44 1449.36 1466.44 M1458.65 1451.78 L1458.65 1456.04 Q1456.89 1455.21 1455.08 1454.77 Q1453.3 1454.33 1451.54 1454.33 Q1446.91 1454.33 1444.46 1457.45 Q1442.03 1460.58 1441.68 1466.9 Q1443.04 1464.89 1445.1 1463.82 Q1447.16 1462.73 1449.64 1462.73 Q1454.85 1462.73 1457.86 1465.9 Q1460.89 1469.05 1460.89 1474.49 Q1460.89 1479.82 1457.74 1483.03 Q1454.6 1486.25 1449.36 1486.25 Q1443.37 1486.25 1440.2 1481.67 Q1437.03 1477.06 1437.03 1468.33 Q1437.03 1460.14 1440.91 1455.28 Q1444.8 1450.39 1451.35 1450.39 Q1453.11 1450.39 1454.9 1450.74 Q1456.7 1451.09 1458.65 1451.78 Z" fill="#000000" fill-rule="nonzero" fill-opacity="1" /><path clip-path="url(#clip150)" d="M1585.86 1463.64 Q1585.15 1463.22 1584.29 1463.03 Q1583.46 1462.83 1582.44 1462.83 Q1578.83 1462.83 1576.88 1465.19 Q1574.96 1467.52 1574.96 1471.92 L1574.96 1485.58 L1570.68 1485.58 L1570.68 1459.65 L1574.96 1459.65 L1574.96 1463.68 Q1576.3 1461.32 1578.46 1460.19 Q1580.61 1459.03 1583.69 1459.03 Q1584.13 1459.03 1584.66 1459.1 Q1585.19 1459.14 1585.84 1459.26 L1585.86 1463.64 Z" fill="#000000" fill-rule="nonzero" fill-opacity="1" /><path clip-path="url(#clip150)" d="M1611.47 1471.55 L1611.47 1473.64 L1591.88 1473.64 Q1592.16 1478.03 1594.52 1480.35 Q1596.91 1482.64 1601.14 1482.64 Q1603.6 1482.64 1605.89 1482.04 Q1608.2 1481.44 1610.47 1480.23 L1610.47 1484.26 Q1608.18 1485.23 1605.77 1485.74 Q1603.36 1486.25 1600.89 1486.25 Q1594.68 1486.25 1591.05 1482.64 Q1587.44 1479.03 1587.44 1472.87 Q1587.44 1466.51 1590.86 1462.78 Q1594.31 1459.03 1600.15 1459.03 Q1605.38 1459.03 1608.41 1462.41 Q1611.47 1465.77 1611.47 1471.55 M1607.21 1470.3 Q1607.16 1466.81 1605.24 1464.72 Q1603.34 1462.64 1600.19 1462.64 Q1596.63 1462.64 1594.48 1464.65 Q1592.35 1466.67 1592.02 1470.33 L1607.21 1470.3 Z" fill="#000000" fill-rule="nonzero" fill-opacity="1" /><path clip-path="url(#clip150)" d="M1640.63 1471.55 L1640.63 1473.64 L1621.05 1473.64 Q1621.33 1478.03 1623.69 1480.35 Q1626.07 1482.64 1630.31 1482.64 Q1632.76 1482.64 1635.05 1482.04 Q1637.37 1481.44 1639.64 1480.23 L1639.64 1484.26 Q1637.35 1485.23 1634.94 1485.74 Q1632.53 1486.25 1630.05 1486.25 Q1623.85 1486.25 1620.22 1482.64 Q1616.61 1479.03 1616.61 1472.87 Q1616.61 1466.51 1620.03 1462.78 Q1623.48 1459.03 1629.31 1459.03 Q1634.54 1459.03 1637.58 1462.41 Q1640.63 1465.77 1640.63 1471.55 M1636.37 1470.3 Q1636.33 1466.81 1634.41 1464.72 Q1632.51 1462.64 1629.36 1462.64 Q1625.79 1462.64 1623.64 1464.65 Q1621.51 1466.67 1621.19 1470.33 L1636.37 1470.3 Z" fill="#000000" fill-rule="nonzero" fill-opacity="1" /><path clip-path="url(#clip150)" d="M1647.62 1449.56 L1651.88 1449.56 L1651.88 1485.58 L1647.62 1485.58 L1647.62 1449.56 Z" fill="#000000" fill-rule="nonzero" fill-opacity="1" /><path clip-path="url(#clip150)" d="M1660.22 1451.02 L1682.44 1451.02 L1682.44 1453.01 L1669.89 1485.58 L1665.01 1485.58 L1676.81 1454.96 L1660.22 1454.96 L1660.22 1451.02 Z" fill="#000000" fill-rule="nonzero" fill-opacity="1" /><path clip-path="url(#clip150)" d="M1807.54 1463.64 Q1806.82 1463.22 1805.96 1463.03 Q1805.13 1462.83 1804.11 1462.83 Q1800.5 1462.83 1798.56 1465.19 Q1796.64 1467.52 1796.64 1471.92 L1796.64 1485.58 L1792.35 1485.58 L1792.35 1459.65 L1796.64 1459.65 L1796.64 1463.68 Q1797.98 1461.32 1800.13 1460.19 Q1802.28 1459.03 1805.36 1459.03 Q1805.8 1459.03 1806.33 1459.1 Q1806.87 1459.14 1807.51 1459.26 L1807.54 1463.64 Z" fill="#000000" fill-rule="nonzero" fill-opacity="1" /><path clip-path="url(#clip150)" d="M1833.14 1471.55 L1833.14 1473.64 L1813.56 1473.64 Q1813.83 1478.03 1816.2 1480.35 Q1818.58 1482.64 1822.82 1482.64 Q1825.27 1482.64 1827.56 1482.04 Q1829.88 1481.44 1832.14 1480.23 L1832.14 1484.26 Q1829.85 1485.23 1827.45 1485.74 Q1825.04 1486.25 1822.56 1486.25 Q1816.36 1486.25 1812.72 1482.64 Q1809.11 1479.03 1809.11 1472.87 Q1809.11 1466.51 1812.54 1462.78 Q1815.99 1459.03 1821.82 1459.03 Q1827.05 1459.03 1830.08 1462.41 Q1833.14 1465.77 1833.14 1471.55 M1828.88 1470.3 Q1828.83 1466.81 1826.91 1464.72 Q1825.01 1462.64 1821.87 1462.64 Q1818.3 1462.64 1816.15 1464.65 Q1814.02 1466.67 1813.7 1470.33 L1828.88 1470.3 Z" fill="#000000" fill-rule="nonzero" fill-opacity="1" /><path clip-path="url(#clip150)" d="M1862.31 1471.55 L1862.31 1473.64 L1842.72 1473.64 Q1843 1478.03 1845.36 1480.35 Q1847.75 1482.64 1851.98 1482.64 Q1854.44 1482.64 1856.73 1482.04 Q1859.04 1481.44 1861.31 1480.23 L1861.31 1484.26 Q1859.02 1485.23 1856.61 1485.74 Q1854.2 1486.25 1851.73 1486.25 Q1845.52 1486.25 1841.89 1482.64 Q1838.28 1479.03 1838.28 1472.87 Q1838.28 1466.51 1841.7 1462.78 Q1845.15 1459.03 1850.99 1459.03 Q1856.22 1459.03 1859.25 1462.41 Q1862.31 1465.77 1862.31 1471.55 M1858.05 1470.3 Q1858 1466.81 1856.08 1464.72 Q1854.18 1462.64 1851.03 1462.64 Q1847.47 1462.64 1845.32 1464.65 Q1843.19 1466.67 1842.86 1470.33 L1858.05 1470.3 Z" fill="#000000" fill-rule="nonzero" fill-opacity="1" /><path clip-path="url(#clip150)" d="M1869.3 1449.56 L1873.56 1449.56 L1873.56 1485.58 L1869.3 1485.58 L1869.3 1449.56 Z" fill="#000000" fill-rule="nonzero" fill-opacity="1" /><path clip-path="url(#clip150)" d="M1893.07 1469.17 Q1889.74 1469.17 1887.82 1470.95 Q1885.92 1472.73 1885.92 1475.86 Q1885.92 1478.98 1887.82 1480.77 Q1889.74 1482.55 1893.07 1482.55 Q1896.4 1482.55 1898.32 1480.77 Q1900.25 1478.96 1900.25 1475.86 Q1900.25 1472.73 1898.32 1470.95 Q1896.43 1469.17 1893.07 1469.17 M1888.39 1467.18 Q1885.38 1466.44 1883.7 1464.38 Q1882.03 1462.32 1882.03 1459.35 Q1882.03 1455.21 1884.97 1452.8 Q1887.93 1450.39 1893.07 1450.39 Q1898.23 1450.39 1901.17 1452.8 Q1904.11 1455.21 1904.11 1459.35 Q1904.11 1462.32 1902.42 1464.38 Q1900.76 1466.44 1897.77 1467.18 Q1901.15 1467.96 1903.02 1470.26 Q1904.92 1472.55 1904.92 1475.86 Q1904.92 1480.88 1901.84 1483.57 Q1898.79 1486.25 1893.07 1486.25 Q1887.35 1486.25 1884.27 1483.57 Q1881.22 1480.88 1881.22 1475.86 Q1881.22 1472.55 1883.12 1470.26 Q1885.01 1467.96 1888.39 1467.18 M1886.68 1459.79 Q1886.68 1462.48 1888.35 1463.98 Q1890.04 1465.49 1893.07 1465.49 Q1896.08 1465.49 1897.77 1463.98 Q1899.48 1462.48 1899.48 1459.79 Q1899.48 1457.11 1897.77 1455.6 Q1896.08 1454.1 1893.07 1454.1 Q1890.04 1454.1 1888.35 1455.6 Q1886.68 1457.11 1886.68 1459.79 Z" fill="#000000" fill-rule="nonzero" fill-opacity="1" /><path clip-path="url(#clip150)" d="M2029.66 1463.64 Q2028.95 1463.22 2028.09 1463.03 Q2027.26 1462.83 2026.24 1462.83 Q2022.63 1462.83 2020.68 1465.19 Q2018.76 1467.52 2018.76 1471.92 L2018.76 1485.58 L2014.48 1485.58 L2014.48 1459.65 L2018.76 1459.65 L2018.76 1463.68 Q2020.1 1461.32 2022.26 1460.19 Q2024.41 1459.03 2027.49 1459.03 Q2027.93 1459.03 2028.46 1459.1 Q2028.99 1459.14 2029.64 1459.26 L2029.66 1463.64 Z" fill="#000000" fill-rule="nonzero" fill-opacity="1" /><path clip-path="url(#clip150)" d="M2055.26 1471.55 L2055.26 1473.64 L2035.68 1473.64 Q2035.96 1478.03 2038.32 1480.35 Q2040.7 1482.64 2044.94 1482.64 Q2047.39 1482.64 2049.69 1482.04 Q2052 1481.44 2054.27 1480.23 L2054.27 1484.26 Q2051.98 1485.23 2049.57 1485.74 Q2047.16 1486.25 2044.69 1486.25 Q2038.48 1486.25 2034.85 1482.64 Q2031.24 1479.03 2031.24 1472.87 Q2031.24 1466.51 2034.66 1462.78 Q2038.11 1459.03 2043.95 1459.03 Q2049.18 1459.03 2052.21 1462.41 Q2055.26 1465.77 2055.26 1471.55 M2051.01 1470.3 Q2050.96 1466.81 2049.04 1464.72 Q2047.14 1462.64 2043.99 1462.64 Q2040.43 1462.64 2038.27 1464.65 Q2036.14 1466.67 2035.82 1470.33 L2051.01 1470.3 Z" fill="#000000" fill-rule="nonzero" fill-opacity="1" /><path clip-path="url(#clip150)" d="M2084.43 1471.55 L2084.43 1473.64 L2064.85 1473.64 Q2065.13 1478.03 2067.49 1480.35 Q2069.87 1482.64 2074.11 1482.64 Q2076.56 1482.64 2078.85 1482.04 Q2081.17 1481.44 2083.44 1480.23 L2083.44 1484.26 Q2081.14 1485.23 2078.74 1485.74 Q2076.33 1486.25 2073.85 1486.25 Q2067.65 1486.25 2064.01 1482.64 Q2060.4 1479.03 2060.4 1472.87 Q2060.4 1466.51 2063.83 1462.78 Q2067.28 1459.03 2073.11 1459.03 Q2078.34 1459.03 2081.38 1462.41 Q2084.43 1465.77 2084.43 1471.55 M2080.17 1470.3 Q2080.13 1466.81 2078.2 1464.72 Q2076.31 1462.64 2073.16 1462.64 Q2069.59 1462.64 2067.44 1464.65 Q2065.31 1466.67 2064.99 1470.33 L2080.17 1470.3 Z" fill="#000000" fill-rule="nonzero" fill-opacity="1" /><path clip-path="url(#clip150)" d="M2091.42 1449.56 L2095.68 1449.56 L2095.68 1485.58 L2091.42 1485.58 L2091.42 1449.56 Z" fill="#000000" fill-rule="nonzero" fill-opacity="1" /><path clip-path="url(#clip150)" d="M2105.33 1484.86 L2105.33 1480.6 Q2107.09 1481.44 2108.9 1481.88 Q2110.7 1482.32 2112.44 1482.32 Q2117.07 1482.32 2119.5 1479.21 Q2121.95 1476.09 2122.3 1469.75 Q2120.96 1471.74 2118.9 1472.8 Q2116.84 1473.87 2114.34 1473.87 Q2109.15 1473.87 2106.12 1470.74 Q2103.11 1467.59 2103.11 1462.15 Q2103.11 1456.83 2106.26 1453.61 Q2109.41 1450.39 2114.64 1450.39 Q2120.63 1450.39 2123.78 1455 Q2126.95 1459.58 2126.95 1468.33 Q2126.95 1476.51 2123.07 1481.39 Q2119.2 1486.25 2112.65 1486.25 Q2110.89 1486.25 2109.08 1485.9 Q2107.28 1485.56 2105.33 1484.86 M2114.64 1470.21 Q2117.79 1470.21 2119.62 1468.06 Q2121.47 1465.9 2121.47 1462.15 Q2121.47 1458.43 2119.62 1456.27 Q2117.79 1454.1 2114.64 1454.1 Q2111.49 1454.1 2109.64 1456.27 Q2107.81 1458.43 2107.81 1462.15 Q2107.81 1465.9 2109.64 1468.06 Q2111.49 1470.21 2114.64 1470.21 Z" fill="#000000" fill-rule="nonzero" fill-opacity="1" /><path clip-path="url(#clip150)" d="M2236.57 1463.64 Q2235.85 1463.22 2234.99 1463.03 Q2234.16 1462.83 2233.14 1462.83 Q2229.53 1462.83 2227.59 1465.19 Q2225.67 1467.52 2225.67 1471.92 L2225.67 1485.58 L2221.38 1485.58 L2221.38 1459.65 L2225.67 1459.65 L2225.67 1463.68 Q2227.01 1461.32 2229.16 1460.19 Q2231.31 1459.03 2234.39 1459.03 Q2234.83 1459.03 2235.36 1459.1 Q2235.9 1459.14 2236.54 1459.26 L2236.57 1463.64 Z" fill="#000000" fill-rule="nonzero" fill-opacity="1" /><path clip-path="url(#clip150)" d="M2262.17 1471.55 L2262.17 1473.64 L2242.59 1473.64 Q2242.86 1478.03 2245.23 1480.35 Q2247.61 1482.64 2251.85 1482.64 Q2254.3 1482.64 2256.59 1482.04 Q2258.91 1481.44 2261.17 1480.23 L2261.17 1484.26 Q2258.88 1485.23 2256.48 1485.74 Q2254.07 1486.25 2251.59 1486.25 Q2245.39 1486.25 2241.75 1482.64 Q2238.14 1479.03 2238.14 1472.87 Q2238.14 1466.51 2241.57 1462.78 Q2245.02 1459.03 2250.85 1459.03 Q2256.08 1459.03 2259.11 1462.41 Q2262.17 1465.77 2262.17 1471.55 M2257.91 1470.3 Q2257.86 1466.81 2255.94 1464.72 Q2254.04 1462.64 2250.9 1462.64 Q2247.33 1462.64 2245.18 1464.65 Q2243.05 1466.67 2242.73 1470.33 L2257.91 1470.3 Z" fill="#000000" fill-rule="nonzero" fill-opacity="1" /><path clip-path="url(#clip150)" d="M2291.34 1471.55 L2291.34 1473.64 L2271.75 1473.64 Q2272.03 1478.03 2274.39 1480.35 Q2276.78 1482.64 2281.01 1482.64 Q2283.47 1482.64 2285.76 1482.04 Q2288.07 1481.44 2290.34 1480.23 L2290.34 1484.26 Q2288.05 1485.23 2285.64 1485.74 Q2283.23 1486.25 2280.76 1486.25 Q2274.55 1486.25 2270.92 1482.64 Q2267.31 1479.03 2267.31 1472.87 Q2267.31 1466.51 2270.73 1462.78 Q2274.18 1459.03 2280.02 1459.03 Q2285.25 1459.03 2288.28 1462.41 Q2291.34 1465.77 2291.34 1471.55 M2287.08 1470.3 Q2287.03 1466.81 2285.11 1464.72 Q2283.21 1462.64 2280.06 1462.64 Q2276.5 1462.64 2274.35 1464.65 Q2272.22 1466.67 2271.89 1470.33 L2287.08 1470.3 Z" fill="#000000" fill-rule="nonzero" fill-opacity="1" /><path clip-path="url(#clip150)" d="M2298.33 1449.56 L2302.59 1449.56 L2302.59 1485.58 L2298.33 1485.58 L2298.33 1449.56 Z" fill="#000000" fill-rule="nonzero" fill-opacity="1" /><path clip-path="url(#clip150)" d="M2312.91 1481.64 L2320.55 1481.64 L2320.55 1455.28 L2312.24 1456.95 L2312.24 1452.69 L2320.5 1451.02 L2325.18 1451.02 L2325.18 1481.64 L2332.82 1481.64 L2332.82 1485.58 L2312.91 1485.58 L2312.91 1481.64 Z" fill="#000000" fill-rule="nonzero" fill-opacity="1" /><path clip-path="url(#clip150)" d="M2352.26 1454.1 Q2348.65 1454.1 2346.82 1457.66 Q2345.02 1461.2 2345.02 1468.33 Q2345.02 1475.44 2346.82 1479.01 Q2348.65 1482.55 2352.26 1482.55 Q2355.9 1482.55 2357.7 1479.01 Q2359.53 1475.44 2359.53 1468.33 Q2359.53 1461.2 2357.7 1457.66 Q2355.9 1454.1 2352.26 1454.1 M2352.26 1450.39 Q2358.07 1450.39 2361.13 1455 Q2364.21 1459.58 2364.21 1468.33 Q2364.21 1477.06 2361.13 1481.67 Q2358.07 1486.25 2352.26 1486.25 Q2346.45 1486.25 2343.37 1481.67 Q2340.32 1477.06 2340.32 1468.33 Q2340.32 1459.58 2343.37 1455 Q2346.45 1450.39 2352.26 1450.39 Z" fill="#000000" fill-rule="nonzero" fill-opacity="1" /><path clip-path="url(#clip150)" d="M1159.74 1520.52 L1166.17 1520.52 L1166.17 1568.04 L1159.74 1568.04 L1159.74 1520.52 Z" fill="#000000" fill-rule="nonzero" fill-opacity="1" /><path clip-path="url(#clip150)" d="M1208.35 1546.53 L1208.35 1568.04 L1202.49 1568.04 L1202.49 1546.72 Q1202.49 1541.66 1200.52 1539.14 Q1198.54 1536.63 1194.6 1536.63 Q1189.85 1536.63 1187.12 1539.65 Q1184.38 1542.68 1184.38 1547.9 L1184.38 1568.04 L1178.49 1568.04 L1178.49 1532.4 L1184.38 1532.4 L1184.38 1537.93 Q1186.48 1534.72 1189.31 1533.13 Q1192.18 1531.54 1195.9 1531.54 Q1202.05 1531.54 1205.2 1535.36 Q1208.35 1539.14 1208.35 1546.53 Z" fill="#000000" fill-rule="nonzero" fill-opacity="1" /><path clip-path="url(#clip150)" d="M1242.75 1533.45 L1242.75 1538.98 Q1240.27 1537.71 1237.6 1537.07 Q1234.92 1536.44 1232.06 1536.44 Q1227.7 1536.44 1225.5 1537.77 Q1223.34 1539.11 1223.34 1541.79 Q1223.34 1543.82 1224.9 1545 Q1226.46 1546.15 1231.17 1547.2 L1233.17 1547.64 Q1239.41 1548.98 1242.02 1551.43 Q1244.66 1553.85 1244.66 1558.21 Q1244.66 1563.17 1240.72 1566.07 Q1236.8 1568.97 1229.93 1568.97 Q1227.06 1568.97 1223.94 1568.39 Q1220.86 1567.85 1217.42 1566.74 L1217.42 1560.69 Q1220.66 1562.38 1223.82 1563.24 Q1226.97 1564.07 1230.05 1564.07 Q1234.19 1564.07 1236.42 1562.66 Q1238.65 1561.23 1238.65 1558.65 Q1238.65 1556.27 1237.02 1554.99 Q1235.43 1553.72 1229.99 1552.54 L1227.95 1552.07 Q1222.51 1550.92 1220.09 1548.56 Q1217.67 1546.18 1217.67 1542.04 Q1217.67 1537.01 1221.24 1534.27 Q1224.8 1531.54 1231.36 1531.54 Q1234.61 1531.54 1237.47 1532.01 Q1240.33 1532.49 1242.75 1533.45 Z" fill="#000000" fill-rule="nonzero" fill-opacity="1" /><path clip-path="url(#clip150)" d="M1259.78 1522.27 L1259.78 1532.4 L1271.85 1532.4 L1271.85 1536.95 L1259.78 1536.95 L1259.78 1556.3 Q1259.78 1560.66 1260.96 1561.9 Q1262.17 1563.14 1265.83 1563.14 L1271.85 1563.14 L1271.85 1568.04 L1265.83 1568.04 Q1259.05 1568.04 1256.47 1565.53 Q1253.89 1562.98 1253.89 1556.3 L1253.89 1536.95 L1249.6 1536.95 L1249.6 1532.4 L1253.89 1532.4 L1253.89 1522.27 L1259.78 1522.27 Z" fill="#000000" fill-rule="nonzero" fill-opacity="1" /><path clip-path="url(#clip150)" d="M1295.75 1550.12 Q1288.65 1550.12 1285.91 1551.75 Q1283.18 1553.37 1283.18 1557.29 Q1283.18 1560.4 1285.21 1562.25 Q1287.28 1564.07 1290.81 1564.07 Q1295.68 1564.07 1298.61 1560.63 Q1301.57 1557.16 1301.57 1551.43 L1301.57 1550.12 L1295.75 1550.12 M1307.43 1547.71 L1307.43 1568.04 L1301.57 1568.04 L1301.57 1562.63 Q1299.57 1565.88 1296.58 1567.44 Q1293.58 1568.97 1289.26 1568.97 Q1283.78 1568.97 1280.53 1565.91 Q1277.32 1562.82 1277.32 1557.67 Q1277.32 1551.65 1281.33 1548.6 Q1285.37 1545.54 1293.36 1545.54 L1301.57 1545.54 L1301.57 1544.97 Q1301.57 1540.93 1298.9 1538.73 Q1296.26 1536.5 1291.45 1536.5 Q1288.4 1536.5 1285.5 1537.23 Q1282.6 1537.97 1279.93 1539.43 L1279.93 1534.02 Q1283.14 1532.78 1286.17 1532.17 Q1289.19 1531.54 1292.06 1531.54 Q1299.79 1531.54 1303.61 1535.55 Q1307.43 1539.56 1307.43 1547.71 Z" fill="#000000" fill-rule="nonzero" fill-opacity="1" /><path clip-path="url(#clip150)" d="M1349.12 1546.53 L1349.12 1568.04 L1343.27 1568.04 L1343.27 1546.72 Q1343.27 1541.66 1341.29 1539.14 Q1339.32 1536.63 1335.37 1536.63 Q1330.63 1536.63 1327.9 1539.65 Q1325.16 1542.68 1325.16 1547.9 L1325.16 1568.04 L1319.27 1568.04 L1319.27 1532.4 L1325.16 1532.4 L1325.16 1537.93 Q1327.26 1534.72 1330.09 1533.13 Q1332.96 1531.54 1336.68 1531.54 Q1342.82 1531.54 1345.97 1535.36 Q1349.12 1539.14 1349.12 1546.53 Z" fill="#000000" fill-rule="nonzero" fill-opacity="1" /><path clip-path="url(#clip150)" d="M1386.46 1533.76 L1386.46 1539.24 Q1383.98 1537.87 1381.46 1537.2 Q1378.98 1536.5 1376.43 1536.5 Q1370.74 1536.5 1367.59 1540.13 Q1364.43 1543.73 1364.43 1550.25 Q1364.43 1556.78 1367.59 1560.4 Q1370.74 1564 1376.43 1564 Q1378.98 1564 1381.46 1563.33 Q1383.98 1562.63 1386.46 1561.26 L1386.46 1566.68 Q1384.01 1567.82 1381.37 1568.39 Q1378.76 1568.97 1375.8 1568.97 Q1367.74 1568.97 1363 1563.91 Q1358.26 1558.85 1358.26 1550.25 Q1358.26 1541.53 1363.03 1536.53 Q1367.84 1531.54 1376.18 1531.54 Q1378.88 1531.54 1381.46 1532.11 Q1384.04 1532.65 1386.46 1533.76 Z" fill="#000000" fill-rule="nonzero" fill-opacity="1" /><path clip-path="url(#clip150)" d="M1427.14 1548.76 L1427.14 1551.62 L1400.21 1551.62 Q1400.59 1557.67 1403.84 1560.85 Q1407.12 1564 1412.94 1564 Q1416.31 1564 1419.47 1563.17 Q1422.65 1562.35 1425.77 1560.69 L1425.77 1566.23 Q1422.62 1567.57 1419.31 1568.27 Q1416 1568.97 1412.59 1568.97 Q1404.06 1568.97 1399.06 1564 Q1394.1 1559.04 1394.1 1550.57 Q1394.1 1541.82 1398.81 1536.69 Q1403.55 1531.54 1411.57 1531.54 Q1418.77 1531.54 1422.94 1536.18 Q1427.14 1540.8 1427.14 1548.76 M1421.28 1547.04 Q1421.22 1542.23 1418.57 1539.37 Q1415.96 1536.5 1411.64 1536.5 Q1406.73 1536.5 1403.77 1539.27 Q1400.85 1542.04 1400.4 1547.07 L1421.28 1547.04 Z" fill="#000000" fill-rule="nonzero" fill-opacity="1" /><polyline clip-path="url(#clip152)" style="stroke:#000000; stroke-linecap:round; stroke-linejoin:round; stroke-width:2; stroke-opacity:0.1; fill:none" points="234.125,1095.97 2352.76,1095.97 "/>
<polyline clip-path="url(#clip152)" style="stroke:#000000; stroke-linecap:round; stroke-linejoin:round; stroke-width:2; stroke-opacity:0.1; fill:none" points="234.125,762.706 2352.76,762.706 "/>
<polyline clip-path="url(#clip152)" style="stroke:#000000; stroke-linecap:round; stroke-linejoin:round; stroke-width:2; stroke-opacity:0.1; fill:none" points="234.125,429.445 2352.76,429.445 "/>
<polyline clip-path="url(#clip152)" style="stroke:#000000; stroke-linecap:round; stroke-linejoin:round; stroke-width:2; stroke-opacity:0.1; fill:none" points="234.125,96.1835 2352.76,96.1835 "/>
<polyline clip-path="url(#clip150)" style="stroke:#000000; stroke-linecap:round; stroke-linejoin:round; stroke-width:4; stroke-opacity:1; fill:none" points="234.125,1423.18 234.125,47.2441 "/>
<polyline clip-path="url(#clip150)" style="stroke:#000000; stroke-linecap:round; stroke-linejoin:round; stroke-width:4; stroke-opacity:1; fill:none" points="234.125,1095.97 253.023,1095.97 "/>
<polyline clip-path="url(#clip150)" style="stroke:#000000; stroke-linecap:round; stroke-linejoin:round; stroke-width:4; stroke-opacity:1; fill:none" points="234.125,762.706 253.023,762.706 "/>
<polyline clip-path="url(#clip150)" style="stroke:#000000; stroke-linecap:round; stroke-linejoin:round; stroke-width:4; stroke-opacity:1; fill:none" points="234.125,429.445 253.023,429.445 "/>
<polyline clip-path="url(#clip150)" style="stroke:#000000; stroke-linecap:round; stroke-linejoin:round; stroke-width:4; stroke-opacity:1; fill:none" points="234.125,96.1835 253.023,96.1835 "/>
<path clip-path="url(#clip150)" d="M146.066 1078.69 L164.422 1078.69 L164.422 1082.62 L150.348 1082.62 L150.348 1091.09 Q151.366 1090.75 152.385 1090.59 Q153.403 1090.4 154.422 1090.4 Q160.209 1090.4 163.589 1093.57 Q166.968 1096.74 166.968 1102.16 Q166.968 1107.74 163.496 1110.84 Q160.024 1113.92 153.704 1113.92 Q151.528 1113.92 149.26 1113.55 Q147.015 1113.18 144.607 1112.44 L144.607 1107.74 Q146.691 1108.87 148.913 1109.43 Q151.135 1109.98 153.612 1109.98 Q157.616 1109.98 159.954 1107.88 Q162.292 1105.77 162.292 1102.16 Q162.292 1098.55 159.954 1096.44 Q157.616 1094.34 153.612 1094.34 Q151.737 1094.34 149.862 1094.75 Q148.01 1095.17 146.066 1096.05 L146.066 1078.69 Z" fill="#000000" fill-rule="nonzero" fill-opacity="1" /><path clip-path="url(#clip150)" d="M186.181 1081.77 Q182.57 1081.77 180.741 1085.33 Q178.936 1088.87 178.936 1096 Q178.936 1103.11 180.741 1106.67 Q182.57 1110.21 186.181 1110.21 Q189.815 1110.21 191.621 1106.67 Q193.45 1103.11 193.45 1096 Q193.45 1088.87 191.621 1085.33 Q189.815 1081.77 186.181 1081.77 M186.181 1078.06 Q191.991 1078.06 195.047 1082.67 Q198.125 1087.25 198.125 1096 Q198.125 1104.73 195.047 1109.34 Q191.991 1113.92 186.181 1113.92 Q180.371 1113.92 177.292 1109.34 Q174.237 1104.73 174.237 1096 Q174.237 1087.25 177.292 1082.67 Q180.371 1078.06 186.181 1078.06 Z" fill="#000000" fill-rule="nonzero" fill-opacity="1" /><path clip-path="url(#clip150)" d="M116.668 776.051 L124.306 776.051 L124.306 749.685 L115.996 751.352 L115.996 747.093 L124.26 745.426 L128.936 745.426 L128.936 776.051 L136.575 776.051 L136.575 779.986 L116.668 779.986 L116.668 776.051 Z" fill="#000000" fill-rule="nonzero" fill-opacity="1" /><path clip-path="url(#clip150)" d="M156.019 748.505 Q152.408 748.505 150.579 752.07 Q148.774 755.611 148.774 762.741 Q148.774 769.847 150.579 773.412 Q152.408 776.954 156.019 776.954 Q159.653 776.954 161.459 773.412 Q163.288 769.847 163.288 762.741 Q163.288 755.611 161.459 752.07 Q159.653 748.505 156.019 748.505 M156.019 744.801 Q161.829 744.801 164.885 749.407 Q167.964 753.991 167.964 762.741 Q167.964 771.468 164.885 776.074 Q161.829 780.657 156.019 780.657 Q150.209 780.657 147.13 776.074 Q144.075 771.468 144.075 762.741 Q144.075 753.991 147.13 749.407 Q150.209 744.801 156.019 744.801 Z" fill="#000000" fill-rule="nonzero" fill-opacity="1" /><path clip-path="url(#clip150)" d="M186.181 748.505 Q182.57 748.505 180.741 752.07 Q178.936 755.611 178.936 762.741 Q178.936 769.847 180.741 773.412 Q182.57 776.954 186.181 776.954 Q189.815 776.954 191.621 773.412 Q193.45 769.847 193.45 762.741 Q193.45 755.611 191.621 752.07 Q189.815 748.505 186.181 748.505 M186.181 744.801 Q191.991 744.801 195.047 749.407 Q198.125 753.991 198.125 762.741 Q198.125 771.468 195.047 776.074 Q191.991 780.657 186.181 780.657 Q180.371 780.657 177.292 776.074 Q174.237 771.468 174.237 762.741 Q174.237 753.991 177.292 749.407 Q180.371 744.801 186.181 744.801 Z" fill="#000000" fill-rule="nonzero" fill-opacity="1" /><path clip-path="url(#clip150)" d="M116.668 442.79 L124.306 442.79 L124.306 416.424 L115.996 418.091 L115.996 413.831 L124.26 412.165 L128.936 412.165 L128.936 442.79 L136.575 442.79 L136.575 446.725 L116.668 446.725 L116.668 442.79 Z" fill="#000000" fill-rule="nonzero" fill-opacity="1" /><path clip-path="url(#clip150)" d="M146.066 412.165 L164.422 412.165 L164.422 416.1 L150.348 416.1 L150.348 424.572 Q151.366 424.225 152.385 424.063 Q153.403 423.878 154.422 423.878 Q160.209 423.878 163.589 427.049 Q166.968 430.22 166.968 435.637 Q166.968 441.216 163.496 444.317 Q160.024 447.396 153.704 447.396 Q151.528 447.396 149.26 447.026 Q147.015 446.655 144.607 445.915 L144.607 441.216 Q146.691 442.35 148.913 442.905 Q151.135 443.461 153.612 443.461 Q157.616 443.461 159.954 441.354 Q162.292 439.248 162.292 435.637 Q162.292 432.026 159.954 429.919 Q157.616 427.813 153.612 427.813 Q151.737 427.813 149.862 428.229 Q148.01 428.646 146.066 429.526 L146.066 412.165 Z" fill="#000000" fill-rule="nonzero" fill-opacity="1" /><path clip-path="url(#clip150)" d="M186.181 415.243 Q182.57 415.243 180.741 418.808 Q178.936 422.35 178.936 429.479 Q178.936 436.586 180.741 440.151 Q182.57 443.692 186.181 443.692 Q189.815 443.692 191.621 440.151 Q193.45 436.586 193.45 429.479 Q193.45 422.35 191.621 418.808 Q189.815 415.243 186.181 415.243 M186.181 411.54 Q191.991 411.54 195.047 416.146 Q198.125 420.73 198.125 429.479 Q198.125 438.206 195.047 442.813 Q191.991 447.396 186.181 447.396 Q180.371 447.396 177.292 442.813 Q174.237 438.206 174.237 429.479 Q174.237 420.73 177.292 416.146 Q180.371 411.54 186.181 411.54 Z" fill="#000000" fill-rule="nonzero" fill-opacity="1" /><path clip-path="url(#clip150)" d="M119.885 109.528 L136.204 109.528 L136.204 113.464 L114.26 113.464 L114.26 109.528 Q116.922 106.774 121.505 102.144 Q126.112 97.4914 127.292 96.1488 Q129.538 93.6257 130.417 91.8896 Q131.32 90.1303 131.32 88.4405 Q131.32 85.6859 129.376 83.9498 Q127.455 82.2137 124.353 82.2137 Q122.154 82.2137 119.7 82.9776 Q117.269 83.7414 114.492 85.2924 L114.492 80.5702 Q117.316 79.4359 119.769 78.8572 Q122.223 78.2785 124.26 78.2785 Q129.63 78.2785 132.825 80.9637 Q136.019 83.6489 136.019 88.1396 Q136.019 90.2692 135.209 92.1905 Q134.422 94.0886 132.316 96.6812 Q131.737 97.3525 128.635 100.57 Q125.533 103.764 119.885 109.528 Z" fill="#000000" fill-rule="nonzero" fill-opacity="1" /><path clip-path="url(#clip150)" d="M156.019 81.9822 Q152.408 81.9822 150.579 85.547 Q148.774 89.0886 148.774 96.2182 Q148.774 103.325 150.579 106.889 Q152.408 110.431 156.019 110.431 Q159.653 110.431 161.459 106.889 Q163.288 103.325 163.288 96.2182 Q163.288 89.0886 161.459 85.547 Q159.653 81.9822 156.019 81.9822 M156.019 78.2785 Q161.829 78.2785 164.885 82.885 Q167.964 87.4683 167.964 96.2182 Q167.964 104.945 164.885 109.551 Q161.829 114.135 156.019 114.135 Q150.209 114.135 147.13 109.551 Q144.075 104.945 144.075 96.2182 Q144.075 87.4683 147.13 82.885 Q150.209 78.2785 156.019 78.2785 Z" fill="#000000" fill-rule="nonzero" fill-opacity="1" /><path clip-path="url(#clip150)" d="M186.181 81.9822 Q182.57 81.9822 180.741 85.547 Q178.936 89.0886 178.936 96.2182 Q178.936 103.325 180.741 106.889 Q182.57 110.431 186.181 110.431 Q189.815 110.431 191.621 106.889 Q193.45 103.325 193.45 96.2182 Q193.45 89.0886 191.621 85.547 Q189.815 81.9822 186.181 81.9822 M186.181 78.2785 Q191.991 78.2785 195.047 82.885 Q198.125 87.4683 198.125 96.2182 Q198.125 104.945 195.047 109.551 Q191.991 114.135 186.181 114.135 Q180.371 114.135 177.292 109.551 Q174.237 104.945 174.237 96.2182 Q174.237 87.4683 177.292 82.885 Q180.371 78.2785 186.181 78.2785 Z" fill="#000000" fill-rule="nonzero" fill-opacity="1" /><path clip-path="url(#clip150)" d="M16.4842 880.271 L16.4842 840.071 L21.895 840.071 L21.895 856.94 L64.0042 856.94 L64.0042 863.401 L21.895 863.401 L21.895 880.271 L16.4842 880.271 Z" fill="#000000" fill-rule="nonzero" fill-opacity="1" /><path clip-path="url(#clip150)" d="M28.3562 836.124 L28.3562 830.268 L64.0042 830.268 L64.0042 836.124 L28.3562 836.124 M14.479 836.124 L14.479 830.268 L21.895 830.268 L21.895 836.124 L14.479 836.124 Z" fill="#000000" fill-rule="nonzero" fill-opacity="1" /><path clip-path="url(#clip150)" d="M35.1993 790.259 Q31.2526 788.063 29.3747 785.008 Q27.4968 781.952 27.4968 777.814 Q27.4968 772.244 31.4117 769.221 Q35.2948 766.197 42.4881 766.197 L64.0042 766.197 L64.0042 772.085 L42.679 772.085 Q37.5546 772.085 35.072 773.9 Q32.5894 775.714 32.5894 779.438 Q32.5894 783.989 35.6131 786.631 Q38.6368 789.273 43.8567 789.273 L64.0042 789.273 L64.0042 795.161 L42.679 795.161 Q37.5228 795.161 35.072 796.975 Q32.5894 798.789 32.5894 802.577 Q32.5894 807.065 35.6449 809.707 Q38.6686 812.348 43.8567 812.348 L64.0042 812.348 L64.0042 818.237 L28.3562 818.237 L28.3562 812.348 L33.8944 812.348 Q30.616 810.343 29.0564 807.542 Q27.4968 804.741 27.4968 800.89 Q27.4968 797.007 29.4702 794.302 Q31.4436 791.564 35.1993 790.259 Z" fill="#000000" fill-rule="nonzero" fill-opacity="1" /><path clip-path="url(#clip150)" d="M44.7161 724.024 L47.5806 724.024 L47.5806 750.951 Q53.6281 750.569 56.8109 747.323 Q59.9619 744.044 59.9619 738.22 Q59.9619 734.846 59.1344 731.695 Q58.3069 728.512 56.6518 725.393 L62.1899 725.393 Q63.5267 728.544 64.227 731.854 Q64.9272 735.164 64.9272 738.57 Q64.9272 747.1 59.9619 752.097 Q54.9967 757.062 46.5303 757.062 Q37.7774 757.062 32.6531 752.352 Q27.4968 747.609 27.4968 739.588 Q27.4968 732.395 32.1438 728.226 Q36.7589 724.024 44.7161 724.024 M42.9973 729.881 Q38.1912 729.944 35.3266 732.586 Q32.4621 735.196 32.4621 739.525 Q32.4621 744.426 35.2312 747.386 Q38.0002 750.315 43.0292 750.76 L42.9973 729.881 Z" fill="#000000" fill-rule="nonzero" fill-opacity="1" /><path clip-path="url(#clip150)" d="M14.5426 679.623 Q21.8632 683.888 29.0246 685.957 Q36.186 688.026 43.5384 688.026 Q50.8908 688.026 58.1159 685.957 Q65.3091 683.857 72.5979 679.623 L72.5979 684.716 Q65.1182 689.49 57.8931 691.877 Q50.668 694.233 43.5384 694.233 Q36.4406 694.233 29.2474 691.877 Q22.0542 689.522 14.5426 684.716 L14.5426 679.623 Z" fill="#000000" fill-rule="nonzero" fill-opacity="1" /><path clip-path="url(#clip150)" d="M14.479 650.214 L19.3487 650.214 L19.3487 655.816 Q19.3487 658.967 20.6219 660.208 Q21.895 661.418 25.2052 661.418 L28.3562 661.418 L28.3562 651.773 L32.9077 651.773 L32.9077 661.418 L64.0042 661.418 L64.0042 667.306 L32.9077 667.306 L32.9077 672.908 L28.3562 672.908 L28.3562 667.306 L25.8736 667.306 Q19.9216 667.306 17.2162 664.537 Q14.479 661.768 14.479 655.752 L14.479 650.214 Z" fill="#000000" fill-rule="nonzero" fill-opacity="1" /><path clip-path="url(#clip150)" d="M58.5933 638.947 L58.5933 616.507 L64.0042 616.507 L64.0042 646.681 L58.5933 646.681 Q54.8057 643.021 48.44 636.719 Q42.0425 630.385 40.1964 628.761 Q36.7271 625.674 34.34 624.465 Q31.921 623.223 29.5975 623.223 Q25.8099 623.223 23.4228 625.897 Q21.0356 628.539 21.0356 632.804 Q21.0356 635.827 22.086 639.201 Q23.1363 642.543 25.2688 646.363 L18.7758 646.363 Q17.2162 642.48 16.4205 639.106 Q15.6248 635.732 15.6248 632.931 Q15.6248 625.547 19.3169 621.154 Q23.009 616.762 29.1837 616.762 Q32.112 616.762 34.7537 617.876 Q37.3637 618.958 40.9285 621.855 Q41.8515 622.65 46.2757 626.915 Q50.668 631.18 58.5933 638.947 Z" fill="#000000" fill-rule="nonzero" fill-opacity="1" /><path clip-path="url(#clip150)" d="M14.5426 604.763 L14.5426 599.67 Q22.0542 594.896 29.2474 592.541 Q36.4406 590.153 43.5384 590.153 Q50.668 590.153 57.8931 592.541 Q65.1182 594.896 72.5979 599.67 L72.5979 604.763 Q65.3091 600.53 58.1159 598.461 Q50.8908 596.36 43.5384 596.36 Q36.186 596.36 29.0246 598.461 Q21.8632 600.53 14.5426 604.763 Z" fill="#000000" fill-rule="nonzero" fill-opacity="1" /><polyline clip-path="url(#clip152)" style="stroke:#0000ff; stroke-linecap:round; stroke-linejoin:round; stroke-width:4; stroke-opacity:1; fill:none" points="294.087,536.088 516.165,1004.32 738.244,1240.94 960.323,1384.24 1182.4,261.148 1404.48,814.362 1626.56,987.657 1848.64,1104.3 2070.72,86.1857 2292.79,786.034 "/>
<circle clip-path="url(#clip152)" cx="294.087" cy="536.088" r="14.4" fill="#0000ff" fill-rule="evenodd" fill-opacity="1" stroke="#000000" stroke-opacity="1" stroke-width="3.2"/>
<circle clip-path="url(#clip152)" cx="516.165" cy="1004.32" r="14.4" fill="#0000ff" fill-rule="evenodd" fill-opacity="1" stroke="#000000" stroke-opacity="1" stroke-width="3.2"/>
<circle clip-path="url(#clip152)" cx="738.244" cy="1240.94" r="14.4" fill="#0000ff" fill-rule="evenodd" fill-opacity="1" stroke="#000000" stroke-opacity="1" stroke-width="3.2"/>
<circle clip-path="url(#clip152)" cx="960.323" cy="1384.24" r="14.4" fill="#0000ff" fill-rule="evenodd" fill-opacity="1" stroke="#000000" stroke-opacity="1" stroke-width="3.2"/>
<circle clip-path="url(#clip152)" cx="1182.4" cy="261.148" r="14.4" fill="#0000ff" fill-rule="evenodd" fill-opacity="1" stroke="#000000" stroke-opacity="1" stroke-width="3.2"/>
<circle clip-path="url(#clip152)" cx="1404.48" cy="814.362" r="14.4" fill="#0000ff" fill-rule="evenodd" fill-opacity="1" stroke="#000000" stroke-opacity="1" stroke-width="3.2"/>
<circle clip-path="url(#clip152)" cx="1626.56" cy="987.657" r="14.4" fill="#0000ff" fill-rule="evenodd" fill-opacity="1" stroke="#000000" stroke-opacity="1" stroke-width="3.2"/>
<circle clip-path="url(#clip152)" cx="1848.64" cy="1104.3" r="14.4" fill="#0000ff" fill-rule="evenodd" fill-opacity="1" stroke="#000000" stroke-opacity="1" stroke-width="3.2"/>
<circle clip-path="url(#clip152)" cx="2070.72" cy="86.1857" r="14.4" fill="#0000ff" fill-rule="evenodd" fill-opacity="1" stroke="#000000" stroke-opacity="1" stroke-width="3.2"/>
<circle clip-path="url(#clip152)" cx="2292.79" cy="786.034" r="14.4" fill="#0000ff" fill-rule="evenodd" fill-opacity="1" stroke="#000000" stroke-opacity="1" stroke-width="3.2"/>
<polyline clip-path="url(#clip152)" style="stroke:#ffa500; stroke-linecap:round; stroke-linejoin:round; stroke-width:4; stroke-opacity:1; fill:none" points="294.087,554.418 516.165,1039.31 738.244,1294.26 960.323,1384.24 1182.4,261.148 1404.48,814.362 1626.56,1079.3 1848.64,1124.29 2070.72,141.174 2292.79,786.034 "/>
<path clip-path="url(#clip152)" d="M278.087 538.418 L278.087 570.418 L310.087 570.418 L310.087 538.418 L278.087 538.418 Z" fill="#ffa500" fill-rule="evenodd" fill-opacity="1" stroke="#000000" stroke-opacity="1" stroke-width="3.2"/>
<path clip-path="url(#clip152)" d="M500.165 1023.31 L500.165 1055.31 L532.165 1055.31 L532.165 1023.31 L500.165 1023.31 Z" fill="#ffa500" fill-rule="evenodd" fill-opacity="1" stroke="#000000" stroke-opacity="1" stroke-width="3.2"/>
<path clip-path="url(#clip152)" d="M722.244 1278.26 L722.244 1310.26 L754.244 1310.26 L754.244 1278.26 L722.244 1278.26 Z" fill="#ffa500" fill-rule="evenodd" fill-opacity="1" stroke="#000000" stroke-opacity="1" stroke-width="3.2"/>
<path clip-path="url(#clip152)" d="M944.323 1368.24 L944.323 1400.24 L976.323 1400.24 L976.323 1368.24 L944.323 1368.24 Z" fill="#ffa500" fill-rule="evenodd" fill-opacity="1" stroke="#000000" stroke-opacity="1" stroke-width="3.2"/>
<path clip-path="url(#clip152)" d="M1166.4 245.148 L1166.4 277.148 L1198.4 277.148 L1198.4 245.148 L1166.4 245.148 Z" fill="#ffa500" fill-rule="evenodd" fill-opacity="1" stroke="#000000" stroke-opacity="1" stroke-width="3.2"/>
<path clip-path="url(#clip152)" d="M1388.48 798.362 L1388.48 830.362 L1420.48 830.362 L1420.48 798.362 L1388.48 798.362 Z" fill="#ffa500" fill-rule="evenodd" fill-opacity="1" stroke="#000000" stroke-opacity="1" stroke-width="3.2"/>
<path clip-path="url(#clip152)" d="M1610.56 1063.3 L1610.56 1095.3 L1642.56 1095.3 L1642.56 1063.3 L1610.56 1063.3 Z" fill="#ffa500" fill-rule="evenodd" fill-opacity="1" stroke="#000000" stroke-opacity="1" stroke-width="3.2"/>
<path clip-path="url(#clip152)" d="M1832.64 1108.29 L1832.64 1140.29 L1864.64 1140.29 L1864.64 1108.29 L1832.64 1108.29 Z" fill="#ffa500" fill-rule="evenodd" fill-opacity="1" stroke="#000000" stroke-opacity="1" stroke-width="3.2"/>
<path clip-path="url(#clip152)" d="M2054.72 125.174 L2054.72 157.174 L2086.72 157.174 L2086.72 125.174 L2054.72 125.174 Z" fill="#ffa500" fill-rule="evenodd" fill-opacity="1" stroke="#000000" stroke-opacity="1" stroke-width="3.2"/>
<path clip-path="url(#clip152)" d="M2276.79 770.034 L2276.79 802.034 L2308.79 802.034 L2308.79 770.034 L2276.79 770.034 Z" fill="#ffa500" fill-rule="evenodd" fill-opacity="1" stroke="#000000" stroke-opacity="1" stroke-width="3.2"/>
<path clip-path="url(#clip150)" d="M304.746 248.629 L1028.74 248.629 L1028.74 93.1086 L304.746 93.1086  Z" fill="#ffffff" fill-rule="evenodd" fill-opacity="1"/>
<polyline clip-path="url(#clip150)" style="stroke:#000000; stroke-linecap:round; stroke-linejoin:round; stroke-width:4; stroke-opacity:1; fill:none" points="304.746,248.629 1028.74,248.629 1028.74,93.1086 304.746,93.1086 304.746,248.629 "/>
<polyline clip-path="url(#clip150)" style="stroke:#0000ff; stroke-linecap:round; stroke-linejoin:round; stroke-width:4; stroke-opacity:1; fill:none" points="328.287,144.949 469.529,144.949 "/>
<circle clip-path="url(#clip150)" cx="398.908" cy="144.949" r="19.6169" fill="#0000ff" fill-rule="evenodd" fill-opacity="1" stroke="#000000" stroke-opacity="1" stroke-width="4.55111"/>
<path clip-path="url(#clip150)" d="M509.458 146.025 Q510.963 146.534 512.375 148.201 Q513.81 149.868 515.245 152.784 L519.99 162.229 L514.967 162.229 L510.546 153.363 Q508.833 149.891 507.213 148.756 Q505.615 147.622 502.838 147.622 L497.745 147.622 L497.745 162.229 L493.069 162.229 L493.069 127.669 L503.625 127.669 Q509.551 127.669 512.467 130.145 Q515.384 132.622 515.384 137.622 Q515.384 140.886 513.856 143.039 Q512.351 145.192 509.458 146.025 M497.745 131.511 L497.745 143.78 L503.625 143.78 Q507.004 143.78 508.717 142.229 Q510.453 140.655 510.453 137.622 Q510.453 134.59 508.717 133.062 Q507.004 131.511 503.625 131.511 L497.745 131.511 Z" fill="#000000" fill-rule="nonzero" fill-opacity="1" /><path clip-path="url(#clip150)" d="M517.768 127.669 L547.004 127.669 L547.004 131.604 L534.736 131.604 L534.736 162.229 L530.037 162.229 L530.037 131.604 L517.768 131.604 L517.768 127.669 Z" fill="#000000" fill-rule="nonzero" fill-opacity="1" /><path clip-path="url(#clip150)" d="M556.194 131.511 L556.194 158.386 L561.842 158.386 Q568.995 158.386 572.305 155.145 Q575.638 151.905 575.638 144.914 Q575.638 137.969 572.305 134.752 Q568.995 131.511 561.842 131.511 L556.194 131.511 M551.518 127.669 L561.124 127.669 Q571.171 127.669 575.87 131.858 Q580.569 136.025 580.569 144.914 Q580.569 153.849 575.847 158.039 Q571.124 162.229 561.124 162.229 L551.518 162.229 L551.518 127.669 Z" fill="#000000" fill-rule="nonzero" fill-opacity="1" /><path clip-path="url(#clip150)" d="M598.74 132.275 L592.397 149.474 L605.106 149.474 L598.74 132.275 M596.101 127.669 L601.402 127.669 L614.573 162.229 L609.712 162.229 L606.564 153.363 L590.985 153.363 L587.837 162.229 L582.907 162.229 L596.101 127.669 Z" fill="#000000" fill-rule="nonzero" fill-opacity="1" /><path clip-path="url(#clip150)" d="M624.295 131.511 L624.295 144.497 L630.175 144.497 Q633.439 144.497 635.221 142.807 Q637.004 141.118 637.004 137.993 Q637.004 134.891 635.221 133.201 Q633.439 131.511 630.175 131.511 L624.295 131.511 M619.619 127.669 L630.175 127.669 Q635.985 127.669 638.948 130.307 Q641.934 132.923 641.934 137.993 Q641.934 143.108 638.948 145.724 Q635.985 148.34 630.175 148.34 L624.295 148.34 L624.295 162.229 L619.619 162.229 L619.619 127.669 Z" fill="#000000" fill-rule="nonzero" fill-opacity="1" /><polyline clip-path="url(#clip150)" style="stroke:#ffa500; stroke-linecap:round; stroke-linejoin:round; stroke-width:4; stroke-opacity:1; fill:none" points="328.287,196.789 469.529,196.789 "/>
<path clip-path="url(#clip150)" d="M377.111 174.992 L377.111 218.585 L420.704 218.585 L420.704 174.992 L377.111 174.992 Z" fill="#ffa500" fill-rule="evenodd" fill-opacity="1" stroke="#000000" stroke-opacity="1" stroke-width="4.55111"/>
<path clip-path="url(#clip150)" d="M493.069 179.509 L497.745 179.509 L497.745 210.133 L514.574 210.133 L514.574 214.069 L493.069 214.069 L493.069 179.509 Z" fill="#000000" fill-rule="nonzero" fill-opacity="1" /><path clip-path="url(#clip150)" d="M540.638 200.041 L540.638 202.124 L521.055 202.124 Q521.333 206.522 523.694 208.837 Q526.078 211.129 530.314 211.129 Q532.768 211.129 535.06 210.527 Q537.374 209.925 539.643 208.721 L539.643 212.749 Q537.351 213.721 534.944 214.231 Q532.537 214.74 530.06 214.74 Q523.856 214.74 520.222 211.129 Q516.611 207.518 516.611 201.36 Q516.611 194.995 520.037 191.268 Q523.486 187.518 529.319 187.518 Q534.55 187.518 537.583 190.897 Q540.638 194.254 540.638 200.041 M536.379 198.791 Q536.333 195.296 534.412 193.212 Q532.513 191.129 529.365 191.129 Q525.8 191.129 523.648 193.143 Q521.518 195.157 521.194 198.814 L536.379 198.791 Z" fill="#000000" fill-rule="nonzero" fill-opacity="1" /><path clip-path="url(#clip150)" d="M568.347 188.143 L558.972 200.759 L568.833 214.069 L563.81 214.069 L556.263 203.883 L548.717 214.069 L543.694 214.069 L553.763 200.504 L544.55 188.143 L549.573 188.143 L556.448 197.379 L563.323 188.143 L568.347 188.143 Z" fill="#000000" fill-rule="nonzero" fill-opacity="1" /><path clip-path="url(#clip150)" d="M574.851 188.143 L579.11 188.143 L579.11 214.069 L574.851 214.069 L574.851 188.143 M574.851 178.05 L579.11 178.05 L579.11 183.444 L574.851 183.444 L574.851 178.05 Z" fill="#000000" fill-rule="nonzero" fill-opacity="1" /><path clip-path="url(#clip150)" d="M606.68 189.138 L606.68 193.12 Q604.874 192.124 603.045 191.638 Q601.24 191.129 599.388 191.129 Q595.245 191.129 592.953 193.768 Q590.661 196.384 590.661 201.129 Q590.661 205.874 592.953 208.513 Q595.245 211.129 599.388 211.129 Q601.24 211.129 603.045 210.643 Q604.874 210.133 606.68 209.138 L606.68 213.073 Q604.897 213.907 602.976 214.323 Q601.078 214.74 598.925 214.74 Q593.069 214.74 589.62 211.059 Q586.171 207.379 586.171 201.129 Q586.171 194.786 589.643 191.152 Q593.138 187.518 599.203 187.518 Q601.17 187.518 603.045 187.935 Q604.92 188.328 606.68 189.138 Z" fill="#000000" fill-rule="nonzero" fill-opacity="1" /><path clip-path="url(#clip150)" d="M624.133 191.129 Q620.707 191.129 618.717 193.814 Q616.726 196.476 616.726 201.129 Q616.726 205.782 618.693 208.467 Q620.684 211.129 624.133 211.129 Q627.536 211.129 629.527 208.444 Q631.518 205.758 631.518 201.129 Q631.518 196.522 629.527 193.837 Q627.536 191.129 624.133 191.129 M624.133 187.518 Q629.689 187.518 632.86 191.129 Q636.031 194.74 636.031 201.129 Q636.031 207.495 632.86 211.129 Q629.689 214.74 624.133 214.74 Q618.555 214.74 615.383 211.129 Q612.235 207.495 612.235 201.129 Q612.235 194.74 615.383 191.129 Q618.555 187.518 624.133 187.518 Z" fill="#000000" fill-rule="nonzero" fill-opacity="1" /><path clip-path="url(#clip150)" d="M660.152 200.805 Q660.152 196.175 658.23 193.629 Q656.332 191.083 652.883 191.083 Q649.457 191.083 647.536 193.629 Q645.638 196.175 645.638 200.805 Q645.638 205.411 647.536 207.958 Q649.457 210.504 652.883 210.504 Q656.332 210.504 658.23 207.958 Q660.152 205.411 660.152 200.805 M664.411 210.851 Q664.411 217.471 661.471 220.689 Q658.531 223.93 652.466 223.93 Q650.221 223.93 648.23 223.582 Q646.24 223.258 644.365 222.564 L644.365 218.42 Q646.24 219.439 648.068 219.925 Q649.897 220.411 651.795 220.411 Q655.985 220.411 658.068 218.212 Q660.152 216.036 660.152 211.615 L660.152 209.508 Q658.832 211.8 656.772 212.934 Q654.712 214.069 651.841 214.069 Q647.073 214.069 644.156 210.434 Q641.24 206.8 641.24 200.805 Q641.24 194.786 644.156 191.152 Q647.073 187.518 651.841 187.518 Q654.712 187.518 656.772 188.652 Q658.832 189.786 660.152 192.078 L660.152 188.143 L664.411 188.143 L664.411 210.851 Z" fill="#000000" fill-rule="nonzero" fill-opacity="1" /><path clip-path="url(#clip150)" d="M688.207 192.124 Q687.489 191.708 686.633 191.522 Q685.8 191.314 684.781 191.314 Q681.17 191.314 679.226 193.675 Q677.304 196.013 677.304 200.411 L677.304 214.069 L673.022 214.069 L673.022 188.143 L677.304 188.143 L677.304 192.171 Q678.647 189.809 680.8 188.675 Q682.952 187.518 686.031 187.518 Q686.471 187.518 687.003 187.587 Q687.536 187.634 688.184 187.749 L688.207 192.124 Z" fill="#000000" fill-rule="nonzero" fill-opacity="1" /><path clip-path="url(#clip150)" d="M704.457 201.036 Q699.295 201.036 697.304 202.217 Q695.313 203.397 695.313 206.245 Q695.313 208.513 696.795 209.856 Q698.3 211.175 700.869 211.175 Q704.411 211.175 706.54 208.675 Q708.693 206.152 708.693 201.985 L708.693 201.036 L704.457 201.036 M712.952 199.277 L712.952 214.069 L708.693 214.069 L708.693 210.133 Q707.235 212.495 705.059 213.629 Q702.883 214.74 699.735 214.74 Q695.753 214.74 693.392 212.518 Q691.054 210.272 691.054 206.522 Q691.054 202.147 693.971 199.925 Q696.911 197.703 702.721 197.703 L708.693 197.703 L708.693 197.286 Q708.693 194.347 706.749 192.749 Q704.827 191.129 701.332 191.129 Q699.11 191.129 697.003 191.661 Q694.897 192.194 692.952 193.259 L692.952 189.323 Q695.29 188.421 697.489 187.981 Q699.688 187.518 701.772 187.518 Q707.397 187.518 710.174 190.434 Q712.952 193.351 712.952 199.277 Z" fill="#000000" fill-rule="nonzero" fill-opacity="1" /><path clip-path="url(#clip150)" d="M725.846 210.18 L725.846 223.93 L721.563 223.93 L721.563 188.143 L725.846 188.143 L725.846 192.078 Q727.188 189.763 729.225 188.652 Q731.285 187.518 734.133 187.518 Q738.855 187.518 741.795 191.268 Q744.758 195.018 744.758 201.129 Q744.758 207.24 741.795 210.99 Q738.855 214.74 734.133 214.74 Q731.285 214.74 729.225 213.629 Q727.188 212.495 725.846 210.18 M740.336 201.129 Q740.336 196.43 738.392 193.768 Q736.471 191.083 733.091 191.083 Q729.711 191.083 727.767 193.768 Q725.846 196.43 725.846 201.129 Q725.846 205.828 727.767 208.513 Q729.711 211.175 733.091 211.175 Q736.471 211.175 738.392 208.513 Q740.336 205.828 740.336 201.129 Z" fill="#000000" fill-rule="nonzero" fill-opacity="1" /><path clip-path="url(#clip150)" d="M773.369 198.421 L773.369 214.069 L769.109 214.069 L769.109 198.559 Q769.109 194.879 767.674 193.05 Q766.239 191.222 763.369 191.222 Q759.92 191.222 757.929 193.421 Q755.938 195.62 755.938 199.416 L755.938 214.069 L751.656 214.069 L751.656 178.05 L755.938 178.05 L755.938 192.171 Q757.466 189.833 759.526 188.675 Q761.609 187.518 764.318 187.518 Q768.785 187.518 771.077 190.296 Q773.369 193.05 773.369 198.421 Z" fill="#000000" fill-rule="nonzero" fill-opacity="1" /><path clip-path="url(#clip150)" d="M781.864 188.143 L786.123 188.143 L786.123 214.069 L781.864 214.069 L781.864 188.143 M781.864 178.05 L786.123 178.05 L786.123 183.444 L781.864 183.444 L781.864 178.05 Z" fill="#000000" fill-rule="nonzero" fill-opacity="1" /><path clip-path="url(#clip150)" d="M813.692 189.138 L813.692 193.12 Q811.887 192.124 810.058 191.638 Q808.253 191.129 806.401 191.129 Q802.257 191.129 799.966 193.768 Q797.674 196.384 797.674 201.129 Q797.674 205.874 799.966 208.513 Q802.257 211.129 806.401 211.129 Q808.253 211.129 810.058 210.643 Q811.887 210.133 813.692 209.138 L813.692 213.073 Q811.91 213.907 809.989 214.323 Q808.091 214.74 805.938 214.74 Q800.081 214.74 796.632 211.059 Q793.183 207.379 793.183 201.129 Q793.183 194.786 796.656 191.152 Q800.151 187.518 806.216 187.518 Q808.183 187.518 810.058 187.935 Q811.933 188.328 813.692 189.138 Z" fill="#000000" fill-rule="nonzero" fill-opacity="1" /><path clip-path="url(#clip150)" d="M836.354 179.509 L843.322 179.509 L852.141 203.027 L861.007 179.509 L867.975 179.509 L867.975 214.069 L863.414 214.069 L863.414 183.722 L854.502 207.425 L849.803 207.425 L840.891 183.722 L840.891 214.069 L836.354 214.069 L836.354 179.509 Z" fill="#000000" fill-rule="nonzero" fill-opacity="1" /><path clip-path="url(#clip150)" d="M899.248 200.041 L899.248 202.124 L879.664 202.124 Q879.942 206.522 882.303 208.837 Q884.687 211.129 888.924 211.129 Q891.377 211.129 893.669 210.527 Q895.984 209.925 898.252 208.721 L898.252 212.749 Q895.961 213.721 893.553 214.231 Q891.146 214.74 888.669 214.74 Q882.465 214.74 878.831 211.129 Q875.22 207.518 875.22 201.36 Q875.22 194.995 878.646 191.268 Q882.095 187.518 887.928 187.518 Q893.16 187.518 896.192 190.897 Q899.248 194.254 899.248 200.041 M894.988 198.791 Q894.942 195.296 893.021 193.212 Q891.123 191.129 887.974 191.129 Q884.41 191.129 882.257 193.143 Q880.127 195.157 879.803 198.814 L894.988 198.791 Z" fill="#000000" fill-rule="nonzero" fill-opacity="1" /><path clip-path="url(#clip150)" d="M910.451 180.782 L910.451 188.143 L919.224 188.143 L919.224 191.453 L910.451 191.453 L910.451 205.527 Q910.451 208.698 911.308 209.601 Q912.187 210.504 914.849 210.504 L919.224 210.504 L919.224 214.069 L914.849 214.069 Q909.919 214.069 908.044 212.24 Q906.169 210.388 906.169 205.527 L906.169 191.453 L903.044 191.453 L903.044 188.143 L906.169 188.143 L906.169 180.782 L910.451 180.782 Z" fill="#000000" fill-rule="nonzero" fill-opacity="1" /><path clip-path="url(#clip150)" d="M946.377 198.421 L946.377 214.069 L942.118 214.069 L942.118 198.559 Q942.118 194.879 940.683 193.05 Q939.247 191.222 936.377 191.222 Q932.928 191.222 930.937 193.421 Q928.946 195.62 928.946 199.416 L928.946 214.069 L924.664 214.069 L924.664 178.05 L928.946 178.05 L928.946 192.171 Q930.474 189.833 932.534 188.675 Q934.618 187.518 937.326 187.518 Q941.794 187.518 944.085 190.296 Q946.377 193.05 946.377 198.421 Z" fill="#000000" fill-rule="nonzero" fill-opacity="1" /><path clip-path="url(#clip150)" d="M964.918 191.129 Q961.493 191.129 959.502 193.814 Q957.511 196.476 957.511 201.129 Q957.511 205.782 959.479 208.467 Q961.469 211.129 964.918 211.129 Q968.321 211.129 970.312 208.444 Q972.303 205.758 972.303 201.129 Q972.303 196.522 970.312 193.837 Q968.321 191.129 964.918 191.129 M964.918 187.518 Q970.474 187.518 973.645 191.129 Q976.817 194.74 976.817 201.129 Q976.817 207.495 973.645 211.129 Q970.474 214.74 964.918 214.74 Q959.34 214.74 956.169 211.129 Q953.02 207.495 953.02 201.129 Q953.02 194.74 956.169 191.129 Q959.34 187.518 964.918 187.518 Z" fill="#000000" fill-rule="nonzero" fill-opacity="1" /><path clip-path="url(#clip150)" d="M1000.94 192.078 L1000.94 178.05 L1005.2 178.05 L1005.2 214.069 L1000.94 214.069 L1000.94 210.18 Q999.594 212.495 997.534 213.629 Q995.497 214.74 992.627 214.74 Q987.928 214.74 984.965 210.99 Q982.025 207.24 982.025 201.129 Q982.025 195.018 984.965 191.268 Q987.928 187.518 992.627 187.518 Q995.497 187.518 997.534 188.652 Q999.594 189.763 1000.94 192.078 M986.423 201.129 Q986.423 205.828 988.344 208.513 Q990.289 211.175 993.668 211.175 Q997.048 211.175 998.992 208.513 Q1000.94 205.828 1000.94 201.129 Q1000.94 196.43 998.992 193.768 Q997.048 191.083 993.668 191.083 Q990.289 191.083 988.344 193.768 Q986.423 196.43 986.423 201.129 Z" fill="#000000" fill-rule="nonzero" fill-opacity="1" /></svg>
